<svg width="542" height="40" viewBox="0 0 542 40" fill="none" xmlns="http://www.w3.org/2000/svg">
<path d="M5.9325 39.9102H0.242188V0H23.0424V2.86465H25.8876V5.7098H28.7327V19.9551H25.8876V22.8197H23.0424V25.6649H5.9325V39.9102ZM5.9325 19.9551H20.1973V17.1099H23.0424V8.55496H20.1973V5.7098H5.9325V19.9551Z" fill="black"/>
<path d="M35.8651 39.9102H30.1748V31.3747H33.02V22.8197H35.8651V14.2648H38.7103V5.7098H41.5749V0H50.1299V5.7098H52.9751V14.2648H55.8202V22.8197H58.6654V31.3747H61.53V39.9102H55.8202V31.3747H35.8651V39.9102ZM38.7103 25.6649H52.9751V22.8197H50.1299V14.2648H47.2652V8.55496H44.4201V14.2648H41.5749V22.8197H38.7103V25.6649Z" fill="black"/>
<path d="M88.598 39.9102H74.3332V37.065H71.4881V34.2198H68.6429V31.3747H65.7978V8.55496H68.6429V5.7098H71.4881V2.86465H74.3332V0H91.4432V2.86465H94.2883V5.7098H97.153V8.55496H99.9981V14.2648H94.2883V11.4196H91.4432V8.55496H88.598V5.7098H77.1979V8.55496H74.3332V11.4196H71.4881V28.51H74.3332V31.3747H77.1979V34.2198H88.598V31.3747H91.4432V28.51H94.2883V25.6649H85.7528V19.9551H99.9981V39.9102H94.2883V34.2198H91.4432V37.065H88.598V39.9102Z" fill="black"/>
<path d="M134.198 39.9102H105.708V0H134.198V5.7098H111.398V15.6873H131.353V21.3971H111.398V34.2198H134.198V39.9102Z" fill="black"/>
<path d="M156.999 39.9102H151.308V0H159.844V5.7098H162.709V11.4196H165.554V17.1099H168.399V22.8197H171.263V28.51H174.109V0H179.799V39.9102H171.263V34.2198H168.399V28.51H165.554V22.8197H162.709V17.1099H159.844V11.4196H156.999V39.9102Z" fill="black"/>
<path d="M211.174 39.9102H194.064V37.065H191.219V34.2198H188.373V31.3747H185.528V8.55496H188.373V5.7098H191.219V2.86465H194.064V0H211.174V2.86465H214.019V5.7098H216.883V8.55496H219.729V31.3747H216.883V34.2198H214.019V37.065H211.174V39.9102ZM196.928 34.2198H208.328V31.3747H211.174V28.51H214.019V11.4196H211.174V8.55496H208.328V5.7098H196.928V8.55496H194.064V11.4196H191.219V28.51H194.064V31.3747H196.928V34.2198Z" fill="black"/>
<path d="M239.703 39.9102H234.013V5.7098H222.613V0H251.103V5.7098H239.703V39.9102Z" fill="black"/>
<path d="M272.442 39.9102H266.752V0H295.242V5.7098H272.442V17.1099H292.397V22.8197H272.442V39.9102Z" fill="black"/>
<path d="M323.733 39.9102H306.623V37.065H303.778V34.2198H300.933V31.3747H298.087V8.55496H300.933V5.7098H303.778V2.86465H306.623V0H323.733V2.86465H326.578V5.7098H329.443V8.55496H332.288V31.3747H329.443V34.2198H326.578V37.065H323.733V39.9102ZM309.487 34.2198H320.888V31.3747H323.733V28.51H326.578V11.4196H323.733V8.55496H320.888V5.7098H309.487V8.55496H306.623V11.4196H303.778V28.51H306.623V31.3747H309.487V34.2198Z" fill="black"/>
<path d="M360.798 39.9102H343.688V37.065H340.843V34.2198H337.998V0H343.688V31.3747H346.533V34.2198H357.953V31.3747H360.798V0H366.488V34.2198H363.643V37.065H360.798V39.9102Z" fill="black"/>
<path d="M377.908 39.9102H372.217V0H380.753V5.7098H383.617V11.4196H386.463V17.1099H389.308V22.8197H392.172V28.51H395.018V0H400.708V39.9102H392.172V34.2198H389.308V28.51H386.463V22.8197H383.617V17.1099H380.753V11.4196H377.908V39.9102Z" fill="black"/>
<path d="M429.237 39.9102H406.437V0H429.237V2.86465H432.083V5.7098H434.928V8.55496H437.792V31.3747H434.928V34.2198H432.083V37.065H429.237V39.9102ZM412.128 34.2198H426.392V31.3747H429.237V28.51H432.083V11.4196H429.237V8.55496H426.392V5.7098H412.128V34.2198Z" fill="black"/>
<path d="M477.644 39.9102H471.934V31.3747H454.844V22.8197H457.689V17.1099H460.534V11.4196H463.379V5.7098H466.244V0H477.644V27.0875H480.489V31.3747H477.644V39.9102ZM460.534 27.0875H471.934V5.7098H469.089V11.4196H466.244V17.1099H463.379V22.8197H460.534V27.0875Z" fill="black"/>
<path d="M504.732 39.9102H490.467V37.065H487.622V34.2198H484.777V5.7098H487.622V2.86465H490.467V0H504.732V2.86465H507.577V5.7098H510.422V34.2198H507.577V37.065H504.732V39.9102ZM493.312 34.2198H501.867V31.3747H504.732V8.55496H501.867V5.7098H493.312V8.55496H490.467V31.3747H493.312V34.2198Z" fill="black"/>
<path d="M538.913 39.9102H533.203V31.3747H516.112V22.8197H518.957V17.1099H521.803V11.4196H524.648V5.7098H527.512V0H538.913V27.0875H541.758V31.3747H538.913V39.9102ZM521.803 27.0875H533.203V5.7098H530.358V11.4196H527.512V17.1099H524.648V22.8197H521.803V27.0875Z" fill="black"/>
</svg>
